<?xml version="1.0" encoding="UTF-8" standalone="no"?>
<svg
   xmlns:dc="http://purl.org/dc/elements/1.1/"
   xmlns:cc="http://creativecommons.org/ns#"
   xmlns:rdf="http://www.w3.org/1999/02/22-rdf-syntax-ns#"
   xmlns:svg="http://www.w3.org/2000/svg"
   xmlns="http://www.w3.org/2000/svg"
   xmlns:sodipodi="http://sodipodi.sourceforge.net/DTD/sodipodi-0.dtd"
   xmlns:inkscape="http://www.inkscape.org/namespaces/inkscape"
   version="1.1"
   id="svg2"
   xml:space="preserve"
   width="390.86743"
   height="100"
   viewBox="0 0 390.86743 99.999999"
   sodipodi:docname="Forensix-Design-Logo.svg"
   inkscape:version="1.0.2-2 (e86c870879, 2021-01-15)"
   inkscape:export-filename="C:\Users\chris\OneDrive\FD\Branding\Forensix-Design-Logo.png"
   inkscape:export-xdpi="204.17976"
   inkscape:export-ydpi="204.17976"><metadata
     id="metadata8"><rdf:RDF><cc:Work
         rdf:about=""><dc:format>image/svg+xml</dc:format><dc:type
           rdf:resource="http://purl.org/dc/dcmitype/StillImage" /><dc:title></dc:title></cc:Work></rdf:RDF></metadata><defs
     id="defs6"><clipPath
       clipPathUnits="userSpaceOnUse"
       id="clipPath18"><path
         d="M 0,180 H 576 V 0 H 0 Z"
         id="path16" /></clipPath></defs><sodipodi:namedview
     pagecolor="#ffffff"
     bordercolor="#666666"
     borderopacity="1"
     objecttolerance="10"
     gridtolerance="10"
     guidetolerance="10"
     inkscape:pageopacity="0"
     inkscape:pageshadow="2"
     inkscape:window-width="1920"
     inkscape:window-height="1009"
     id="namedview4"
     showgrid="false"
     showguides="true"
     inkscape:guide-bbox="true"
     inkscape:zoom="1.9206221"
     inkscape:cx="194.7835"
     inkscape:cy="56.120022"
     inkscape:window-x="-8"
     inkscape:window-y="1072"
     inkscape:window-maximized="1"
     inkscape:current-layer="g14"
     inkscape:document-rotation="0"><sodipodi:guide
       position="121.80253,45.946125"
       orientation="1,0"
       id="guide133" /><sodipodi:guide
       position="592.48265,-7.2317317"
       orientation="1,0"
       id="guide135" /><sodipodi:guide
       position="16.421333,-86.815732"
       orientation="0,-1"
       id="guide137" /><sodipodi:guide
       position="81.802532,14.090325"
       orientation="1,0"
       id="guide869" /><sodipodi:guide
       position="16.421333,-86.815732"
       orientation="1,0"
       id="guide870" /><sodipodi:guide
       position="113.67733,83.826925"
       orientation="0,-1"
       id="guide872" /><sodipodi:guide
       position="71.095998,40.270925"
       orientation="0,-1"
       id="guide874" /><sodipodi:guide
       position="71.095998,25.589595"
       orientation="0,-1"
       id="guide876" /><sodipodi:guide
       position="71.095998,25.589595"
       orientation="1,0"
       id="guide878" /></sodipodi:namedview><g
     id="g10"
     inkscape:groupmode="layer"
     inkscape:label="Forensix-Consulting-Logo"
     transform="matrix(1.3333333,0,0,-1.3333333,-20.661333,215.64373)"><g
       id="g12"><g
         id="g14"
         clip-path="url(#clipPath18)"><g
           id="g54"
           transform="translate(481.7598,44.5078)" /><g
           id="g58"
           transform="matrix(0.53187794,0,0,0.53187794,70.3065,140.17026)"><path
             d="m 0,0 c 0,-7.859 0.283,-13.177 0.849,-15.955 0.496,-2.776 1.504,-5.025 3.026,-6.743 1.237,-1.645 2.864,-2.979 4.883,-4.001 1.981,-1.207 4.352,-1.81 7.114,-1.81 2.794,0 5.218,0.603 7.271,1.81 1.946,1.022 3.503,2.356 4.671,4.001 1.522,1.718 2.566,3.967 3.133,6.743 0.53,2.778 0.795,8.096 0.795,15.955 0,7.859 -0.265,13.212 -0.795,16.063 -0.567,2.707 -1.611,4.917 -3.133,6.635 -1.168,1.646 -2.725,3.016 -4.671,4.113 -2.053,1.06 -4.477,1.624 -7.271,1.7 -2.762,-0.076 -5.133,-0.64 -7.114,-1.7 C 6.739,25.714 5.112,24.344 3.875,22.698 2.353,20.98 1.345,18.77 0.849,16.065 0.283,13.212 0,7.859 0,0 m -11.699,0 c 0,9.283 0.265,15.496 0.795,18.639 0.565,3.145 1.431,5.686 2.595,7.623 1.872,3.67 4.874,6.939 9.005,9.81 4.062,2.906 9.129,4.395 15.202,4.468 6.145,-0.073 11.265,-1.568 15.362,-4.486 4.06,-2.881 6.991,-6.165 8.792,-9.846 1.306,-1.936 2.205,-4.47 2.699,-7.606 C 43.21,15.465 43.44,9.265 43.44,0 c 0,-9.117 -0.23,-15.282 -0.689,-18.493 -0.494,-3.208 -1.394,-5.779 -2.7,-7.713 -1.801,-3.686 -4.733,-6.932 -8.793,-9.739 -4.097,-2.918 -9.218,-4.45 -15.361,-4.596 -6.073,0.146 -11.139,1.678 -15.201,4.596 -4.132,2.807 -7.133,6.053 -9.005,9.739 -0.565,1.203 -1.077,2.352 -1.535,3.447 -0.424,1.13 -0.779,2.553 -1.06,4.266 -0.53,3.211 -0.795,9.376 -0.795,18.493"
             style="fill:#c05a27;fill-opacity:1;fill-rule:nonzero;stroke:none"
             id="path60" /></g><g
           id="g62"
           transform="matrix(0.53187794,0,0,0.53187794,107.39201,142.78678)"><path
             d="m 0,0 h 17.745 c 4.391,0.071 7.686,1.389 9.882,3.95 2.16,2.376 3.241,5.303 3.241,8.777 -0.072,4.168 -1.363,7.187 -3.879,9.051 -1.984,1.646 -4.853,2.468 -8.606,2.468 H 0 Z m -11.697,34.965 h 30.189 c 6.436,0 11.69,-1.752 15.757,-5.253 4.895,-3.974 7.447,-9.647 7.66,-17.015 C 41.768,1.864 36.794,-5.503 26.989,-9.406 L 44.872,-44.803 H 30.975 l -15.991,34.09 H 0 v -34.09 h -11.697 z"
             style="fill:#c05a27;fill-opacity:1;fill-rule:nonzero;stroke:none"
             id="path64" /></g><g
           id="g66"
           transform="matrix(0.53187794,0,0,0.53187794,137.51609,161.38383)"><path
             d="M 0,0 H 49.356 V -11.374 H 11.697 v -22.825 h 32.15 v -10.714 h -32.15 v -23.48 H 49.356 V -79.768 H 0 Z"
             style="fill:#c05a27;fill-opacity:1;fill-rule:nonzero;stroke:none"
             id="path68" /></g><g
           id="g70"
           transform="matrix(0.53187794,0,0,0.53187794,171.31602,161.38383)"><path
             d="M 0,0 H 11.027 L 46.019,-56.707 H 46.23 V 0 h 11.7 V -79.768 H 46.85 L 11.912,-23.062 H 11.699 V -79.768 H 0 Z"
             style="fill:#c05a27;fill-opacity:1;fill-rule:nonzero;stroke:none"
             id="path72" /></g><g
           id="g74"
           transform="matrix(0.53187794,0,0,0.53187794,211.93719,129.23453)"><path
             d="m 0,0 c 6.151,-5.227 13.469,-7.874 21.956,-7.948 10.042,0.144 15.135,3.852 15.275,11.116 0.074,5.948 -3.284,9.525 -10.073,10.732 -3.107,0.437 -6.518,0.931 -10.227,1.48 -6.645,1.128 -11.698,3.665 -15.16,7.609 -3.569,4.052 -5.354,8.98 -5.354,14.785 0,6.972 2.24,12.594 6.726,16.866 4.337,4.235 10.499,6.387 18.474,6.461 9.605,-0.217 17.95,-2.966 25.044,-8.24 L 40.141,42.93 C 34.346,46.877 27.962,48.923 21,49.071 c -3.605,0 -6.613,-0.932 -9.014,-2.795 -2.511,-1.934 -3.801,-4.817 -3.873,-8.651 0,-2.299 0.866,-4.38 2.6,-6.242 1.731,-1.899 4.506,-3.213 8.321,-3.943 2.117,-0.364 5.017,-0.784 8.694,-1.259 7.244,-1.02 12.596,-3.705 16.058,-8.049 3.429,-4.271 5.141,-9.237 5.141,-14.893 -0.388,-15.261 -9.426,-22.999 -27.111,-23.219 -11.437,0 -21.267,3.629 -29.496,10.887 z"
             style="fill:#c05a27;fill-opacity:1;fill-rule:nonzero;stroke:none"
             id="path76" /></g><path
           d="m 245.61884,161.38399 h 6.2235 v -42.42684 h -6.2235 z"
           style="fill:#c05a27;fill-opacity:1;fill-rule:nonzero;stroke:none;stroke-width:0.531878"
           id="path78" /><g
           id="g80"
           transform="matrix(0.53187794,0,0,0.53187794,273.73731,134.75021)"><path
             d="m 0,0 -16.948,-29.693 h -13.19 l 23.626,40.869 -22.144,38.899 h 13.243 L 0,22.411 15.42,50.075 H 28.607 L 5.791,11.176 65.634,-90.279 H 52.391 Z"
             style="fill:#c05a27;fill-opacity:1;fill-rule:nonzero;stroke:none"
             id="path82" /></g><path
           d="m 15.496,161.54674 h 45.346849 v -6.26552 h -38.79624 v -17.37485 h 21.810186 v -5.85651 H 22.046609 V 87.210425 l -6.550609,-10e-7 z"
           style="fill:#c05a27;fill-opacity:1;fill-rule:nonzero;stroke:none;stroke-width:0.531878"
           id="path88"
           sodipodi:nodetypes="ccccccccccc" /></g></g><g
       aria-label="DESIGN"
       transform="matrix(0.53187794,0,0,-0.53187794,7.2540182,119.31871)"
       id="text92"
       style="font-style:normal;font-variant:normal;font-weight:normal;font-stretch:normal;font-size:60px;line-height:1.25;font-family:'DINfun Pro';-inkscape-font-specification:'DINfun Pro, Normal';font-variant-ligatures:normal;font-variant-caps:normal;font-variant-numeric:normal;font-variant-east-asian:normal;stroke-width:0.75"><path
         d="m 100.8479,45.367769 c 0,4.98 -4.02,9 -9,9 h -9 v -30 h 9 c 4.98,0 9,4.02 9,9 z m 6,-12 c 0,-8.28 -6.72,-15 -15,-15 h -15 v 42 h 15 c 8.28,0 15,-6.72 15,-15 z"
         id="path120" /><path
         d="m 158.48991,60.367771 h 27 v -6 h -21 v -12 h 18 v -6 h -18 v -12 h 21 v -6 h -27 z"
         id="path122" /><path
         d="m 237.13193,54.667771 c 4.2,4.02 9.48,6.3 16.8,6.3 8.52,0 13.8,-5.46 13.8,-12.3 0,-9.9 -7.02,-11.4 -14.04,-12.3 -4.38,-0.54 -8.76,-1.02 -8.76,-6.3 0,-3.9 3.06,-6.3 8.4,-6.3 4.62,0 6.9,0.96 8.64,2.64 l 4.26,-4.26 c -2.82,-2.76 -6.42,-4.38 -12.9,-4.38 -9.18,0 -14.4,4.68 -14.4,12.3 0,9.96 7.02,11.4 14.04,12.3 4.38,0.54 8.76,1.08 8.76,6.3 0,3.48 -3,6.3 -7.8,6.3 -5.64,0 -9.48,-1.62 -12.54,-4.56 z"
         id="path124" /><path
         d="m 319.37393,60.367771 h 6 v -42 h -6 z"
         id="path126" /><path
         d="m 392.01595,42.367771 h 9 v 3.6 c 0,4.98 -4.02,9 -9,9 -4.98,0 -9,-4.02 -9,-9 v -13.2 c 0,-4.98 4.02,-9 9,-9 4.14,0 7.68,2.76 8.7,6.6 h 6.12 c -1.14,-7.14 -7.38,-12.6 -14.82,-12.6 -8.28,0 -15,6.72 -15,15 v 13.2 c 0,8.28 6.72,15 15,15 8.28,0 15,-6.72 15,-15 v -9.6 h -15 z"
         id="path128" /><path
         d="m 464.65794,29.827769 19.2,30.54 h 6 v -42 h -6 v 30.6 l -19.2,-30.6 h -6 v 42 h 6 z"
         id="path130" /></g></g></svg>
